<svg xmlns="http://www.w3.org/2000/svg" width="342.48449" height="545.91147" viewBox="0 0 342.48449 545.91147" xmlns:xlink="http://www.w3.org/1999/xlink"><line x1="28.3715" y1="5.40409" x2="99.66202" y2="5.40409" fill="none" stroke="#090814" stroke-miterlimit="10" stroke-width="2"/><line x1="28.3715" y1="32.42457" x2="178.33512" y2="32.42457" fill="none" stroke="#090814" stroke-miterlimit="10" stroke-width="2"/><line x1="28.3715" y1="20.26535" x2="243.18425" y2="20.26535" fill="none" stroke="#090814" stroke-miterlimit="10" stroke-width="2"/><circle cx="12.15921" cy="12.15921" r="12.15921" fill="#800000" stroke-width="0"/><path d="m332.08299,220.21685H38.09748c-5.73558,0-10.4015-4.66657-10.4015-10.40183V55.66112c0-5.73525,4.66591-10.40183,10.4015-10.40183h293.98551c5.73558,0,10.4015,4.66657,10.4015,10.40183v154.15391c0,5.73525-4.66591,10.40183-10.4015,10.40183Z" fill="#d8d8d8" stroke-width="0"/><path d="m174.70088,231.20866l-.03857-.03857-.03857.03857c-1.87687-1.87533-4.9186-1.87302-6.79393.00386-1.87533,1.87765-1.91313,4.95717-.03626,6.8325h0l6.87339,6.86644,6.86876-6.87493h0c1.87533-1.87765,1.83599-4.95717-.04011-6.8325-1.87687-1.87533-4.9186-1.87302-6.79393.00386h0l-.00077.00077Z" fill="#800000" stroke-width="0"/><line x1="28.3715" y1="306.40409" x2="99.66202" y2="306.40409" fill="none" stroke="#090814" stroke-miterlimit="10" stroke-width="2"/><line x1="28.3715" y1="333.42457" x2="178.33512" y2="333.42457" fill="none" stroke="#090814" stroke-miterlimit="10" stroke-width="2"/><line x1="28.3715" y1="321.26535" x2="243.18425" y2="321.26535" fill="none" stroke="#090814" stroke-miterlimit="10" stroke-width="2"/><circle cx="12.15921" cy="313.15921" r="12.15921" fill="#800000" stroke-width="0"/><path d="m332.08299,521.21685H38.09748c-5.73558,0-10.4015-4.66657-10.4015-10.40183v-154.15391c0-5.73525,4.66591-10.40183,10.4015-10.40183h293.98551c5.73558,0,10.4015,4.66657,10.4015,10.40183v154.15391c0,5.73525-4.66591,10.40183-10.4015,10.40183Z" fill="#d8d8d8" stroke-width="0"/><path d="m174.70088,532.20866l-.03857-.03857-.03857.03857c-1.87687-1.87533-4.9186-1.87302-6.79393.00386-1.87533,1.87765-1.91313,4.95717-.03626,6.8325h0l6.87339,6.86644,6.86876-6.87493h0c1.87533-1.87765,1.83599-4.95717-.04011-6.8325-1.87687-1.87533-4.9186-1.87302-6.79393.00386h0l-.00077.00077Z" fill="#800000" stroke-width="0"/></svg>